<svg width="147" height="125" viewBox="0 0 147 125" fill="none" xmlns="http://www.w3.org/2000/svg">
<path d="M88.9026 46.1954L83.6049 45.5394C83.4424 45.5394 83.28 45.5394 83.28 45.6771L81.0372 48.124C80.9092 48.2836 80.8517 48.4764 80.8748 48.6685C80.8748 48.8062 80.7124 49.0818 80.5577 48.944L78.7866 48.5373C78.4695 48.5373 78.1447 48.5373 78.0132 48.8062L70.7898 56.6782C70.6274 56.8159 70.465 56.816 70.1479 56.816L67.4178 55.727C67.3019 55.6653 67.1679 55.6325 67.0311 55.6325C66.8943 55.6325 66.7603 55.6653 66.6444 55.727L65.1286 56.5535C65.0134 56.6168 64.8791 56.6505 64.7419 56.6505C64.6047 56.6505 64.4704 56.6168 64.3552 56.5535L63.7133 56.2846C63.6088 56.2445 63.4956 56.2233 63.3809 56.2223C63.2662 56.2214 63.1526 56.2406 63.0471 56.2788C62.9417 56.3171 62.8468 56.3735 62.7684 56.4445C62.69 56.5155 62.6299 56.5996 62.5919 56.6913L62.1046 58.5937C62.0468 58.7957 62.0624 59.0078 62.1493 59.2022C62.2363 59.3966 62.3906 59.5641 62.5919 59.6827L63.8757 60.3386L67.2399 62.1098L68.8486 62.9233C69.0744 63.0357 69.3368 63.0837 69.5972 63.0601C69.8576 63.0364 70.1021 62.9425 70.2948 62.7921L73.0172 60.7454C73.2516 60.6321 73.5228 60.5861 73.7905 60.6142L74.5639 61.0209C74.881 61.1586 75.2058 61.1586 75.3373 60.8831L76.7758 59.7942C76.8748 59.7097 77.0008 59.6516 77.1382 59.6271C77.2756 59.6026 77.4185 59.6128 77.5492 59.6564L79.6374 60.4764C79.7984 60.5212 79.9698 60.532 80.1369 60.508C80.304 60.484 80.4617 60.4259 80.5964 60.3386L81.5631 59.2497L88.7866 51.3777C89.1036 50.9645 88.9412 50.42 88.2993 50.42L86.7835 50.1314C86.4587 50.1314 86.304 49.7246 86.4586 49.4754L89.0263 46.8907C89.3821 46.6152 89.2196 46.1954 88.9026 46.1954Z" fill="white"/>
<path d="M64.827 62.1361C64.6645 61.9983 64.5099 62.1361 64.5099 62.2739L65.2833 64.0385V64.4518L64.6414 66.7609C64.6304 66.8357 64.6392 66.9116 64.6673 66.9831C64.6954 67.0546 64.742 67.1199 64.8038 67.1741L66.7295 68.3943C66.8183 68.4603 66.9324 68.4966 67.0505 68.4966C67.1685 68.4966 67.2826 68.4603 67.3714 68.3943L69.4596 66.8986C69.522 66.8464 69.5976 66.8069 69.6807 66.783C69.7637 66.7592 69.8521 66.7516 69.9391 66.7609L72.1896 66.4919C72.3443 66.4919 72.3443 66.3542 72.1896 66.2164L64.827 62.1361Z" fill="white"/>
<path d="M64.1847 67.9873C64.1575 67.9548 64.1216 67.9283 64.0799 67.91C64.0382 67.8917 63.9919 67.8822 63.9449 67.8822C63.898 67.8822 63.8517 67.8917 63.81 67.91C63.7683 67.9283 63.7324 67.9548 63.7052 67.9873L62.0965 68.6433C62.0756 68.6433 62.0548 68.6469 62.0355 68.6539C62.0162 68.6609 61.9988 68.6711 61.9844 68.684C61.9699 68.6969 61.9586 68.7121 61.9513 68.7288C61.944 68.7455 61.9408 68.7633 61.9419 68.781L58.4075 76.1282H58.5699L59.3433 75.8593V75.9904L56.7756 79.5328C56.7756 79.6706 56.7756 79.6706 56.9303 79.6706L65.9171 71.9102C66.0795 71.9102 66.0795 71.7724 66.0795 71.6346L66.2419 69.5945C66.2419 69.4567 66.2419 69.3255 66.0795 69.3255L64.1847 67.9873Z" fill="white"/>
<path d="M55.1206 125L51.563 119.352L57.7501 115.711L58.9411 117.122L56.9845 118.243C56.6502 118.447 56.3015 118.633 55.9404 118.801C55.6139 118.958 55.2724 119.092 54.9195 119.201L61.5707 120.566L61.1144 122.166L54.4477 120.795C54.6228 120.948 54.7855 121.11 54.935 121.281C55.0819 121.445 55.2211 121.622 55.3603 121.812L55.7857 122.468L56.9149 124.226L55.1206 125Z" fill="#FFCD1E"/>
<path d="M25.9796 103.418C27.0391 102.388 28.7251 102.283 30.2332 103.418L33.3268 105.72L27.1397 111.71L24.6803 109.827C23.0716 108.633 22.4839 107.38 23.613 106.278C23.8563 106.019 24.1838 105.826 24.555 105.724C24.9262 105.621 25.3247 105.613 25.7011 105.701C25.4236 105.353 25.2993 104.934 25.3502 104.516C25.4011 104.099 25.624 103.71 25.9796 103.418ZM28.1915 108.417L26.9386 107.492C26.1652 106.908 25.5001 106.744 25.0979 107.137C24.6957 107.531 24.9742 108.049 25.7707 108.633L27.0159 109.558L28.1915 108.417ZM27.1861 104.533C26.637 105.071 26.9308 105.727 27.797 106.37L29.2201 107.419L30.8365 105.852L29.4134 104.802C28.5472 104.159 27.7429 103.989 27.1861 104.533Z" fill="white"/>
<path d="M12.0428 97.947L16.312 95.1918C18.2764 93.9191 20.527 93.9454 21.9732 95.5526C23.4194 97.1598 22.8471 99.0097 20.8827 100.276L16.6136 103.031L15.5386 101.837L19.9778 98.9638C20.2175 98.84 20.4238 98.675 20.5835 98.4793C20.7432 98.2837 20.8526 98.0617 20.9047 97.8279C20.9568 97.5941 20.9505 97.3536 20.886 97.122C20.8215 96.8904 20.7004 96.6728 20.5305 96.4835C20.3606 96.2941 20.1457 96.1371 19.8997 96.0227C19.6537 95.9082 19.3822 95.8389 19.1026 95.8192C18.823 95.7995 18.5416 95.8298 18.2767 95.9081C18.0118 95.9865 17.7693 96.1112 17.5649 96.2742L13.1179 99.1409L12.0428 97.947Z" fill="white"/>
<path d="M16.4438 88.6775L8.15307 92.3839L7.32556 91.0719L15.6318 87.3458L16.4438 88.6775Z" fill="white"/>
<path d="M9.50599 78.5293L11.192 78.0373L13.0017 82.4784L4.13095 85.1023L3.5509 83.6788L10.728 81.5796L9.50599 78.5293Z" fill="white"/>
<path d="M4.03078 67.1151C6.59843 66.8134 8.91085 68.0663 9.33622 70.6838L9.7616 73.3078L0.480921 74.3901L0.0632841 71.7662C-0.369814 69.0766 1.47086 67.4103 4.03078 67.1151ZM4.27053 68.6043C3.89438 68.6329 3.52912 68.7265 3.1972 68.8793C2.86528 69.0321 2.57371 69.2409 2.34045 69.4928C2.10719 69.7447 1.93717 70.0345 1.84082 70.3442C1.74447 70.6539 1.72384 70.9771 1.78021 71.2938L1.99676 72.6714L7.75078 72.0154L7.52649 70.6444C7.48069 70.3266 7.35919 70.02 7.16937 69.7433C6.97954 69.4666 6.72536 69.2255 6.42227 69.0346C6.11918 68.8438 5.7735 68.7073 5.40625 68.6333C5.03901 68.5593 4.65787 68.5494 4.28598 68.6043H4.27053Z" fill="white"/>
<path d="M1.35473 47.5072L3.11032 47.8024L2.63082 49.836L10.0786 51.0955L9.73053 52.5715L2.28279 51.312L1.80329 53.339L0.0554199 53.0438L1.35473 47.5072Z" fill="white"/>
<path d="M6.47431 35.4437L15.1208 38.5203L14.4325 39.9111L10.929 38.6647L9.38227 41.7872L12.8857 43.0336L12.1974 44.4178L3.5509 41.3411L4.23921 39.9504L7.73494 41.1968L9.28172 38.0743L5.78599 36.8279L6.47431 35.4437Z" fill="white"/>
<path d="M12.8628 29.1394L14.5256 30.0971L16.3894 27.7618L17.8666 28.608L16.0027 30.9434L17.6655 31.9011L19.9084 29.1L21.3855 29.9462L18.145 33.9937L10.4111 29.533L13.6439 25.4855L15.1211 26.3383L12.8628 29.1394Z" fill="white"/>
<path d="M31.5559 20.7885L25.8174 14.4975L30.3804 11.5062L31.4709 12.7001L28.3154 14.773L29.5528 16.1244L32.1824 14.3926L33.2806 15.593L30.6356 17.3314L32.9558 19.8767L31.5559 20.7885Z" fill="white"/>
<path d="M43.3113 5.26099L45.7165 9.3216C46.8225 11.1912 46.3817 13.0608 44.2548 13.9726C42.128 14.8844 40.0863 14.0645 38.9803 12.1883L36.5751 8.14737L38.1605 7.49137L40.6663 11.716C40.7862 11.9154 40.9511 12.0929 41.1518 12.2382C41.3525 12.3836 41.585 12.494 41.836 12.5631C42.087 12.6322 42.3516 12.6588 42.6147 12.6412C42.8778 12.6236 43.1342 12.5622 43.3693 12.4605C43.6044 12.3589 43.8136 12.219 43.985 12.0487C44.1564 11.8785 44.2865 11.6813 44.368 11.4684C44.4495 11.2555 44.4808 11.0311 44.4601 10.8079C44.4393 10.5848 44.367 10.3673 44.2471 10.1678L41.7413 5.93666L43.3113 5.26099Z" fill="white"/>
<path d="M56.6213 1.54824L57.0931 3.00455L54.7729 3.55559L56.7914 9.76787L55.0745 10.1615L53.0637 3.95575L50.7435 4.50678L50.264 3.04391L56.6213 1.54824Z" fill="white"/>
<path d="M71.4088 0L71.7955 4.53293C71.9734 6.619 70.7128 8.19995 68.3385 8.34427C65.9642 8.48859 64.4715 7.0782 64.2782 4.98557L63.8915 0.459195L65.6625 0.347677L66.057 5.07085C66.0436 5.31164 66.0905 5.55211 66.1946 5.77639C66.2988 6.00068 66.4578 6.20369 66.6612 6.37205C66.8646 6.5404 67.1078 6.67027 67.3747 6.75309C67.6416 6.83591 67.9262 6.8698 68.2097 6.85252C68.4931 6.83525 68.769 6.76721 69.0192 6.65287C69.2694 6.53854 69.4882 6.38052 69.6612 6.18924C69.8341 5.99795 69.9573 5.77774 70.0226 5.54312C70.0879 5.30851 70.0938 5.06482 70.0399 4.82813L69.6378 0.104959L71.4088 0Z" fill="white"/>
<path d="M82.9165 8.64011L81.2383 5.77997L80.1787 5.66845L79.7843 8.29244L78.021 8.09564L79.2197 0.223686L82.5221 0.584486C84.9273 0.846884 85.8709 2.0736 85.6157 3.60207C85.5413 4.15899 85.2587 4.68108 84.8092 5.09188C84.3596 5.50268 83.7669 5.7806 83.1176 5.88493L85.0356 8.88284L82.9165 8.64011ZM80.4108 4.16622L82.1741 4.35646C82.3606 4.39086 82.5534 4.39324 82.741 4.36348C82.9287 4.33371 83.1074 4.2724 83.2667 4.18314C83.426 4.09389 83.5626 3.97851 83.6685 3.84379C83.7743 3.70907 83.8474 3.55774 83.8833 3.39871C83.9074 3.23425 83.89 3.06732 83.8322 2.90901C83.7744 2.7507 83.6776 2.60463 83.5481 2.48053C83.4186 2.35642 83.2595 2.25712 83.0812 2.18922C82.903 2.12132 82.7098 2.08637 82.5144 2.08671L80.7511 1.89648L80.4108 4.16622Z" fill="white"/>
<path d="M94.6181 4.3689L93.9916 5.98921L97.147 6.8748L96.5902 8.31144L93.4348 7.42584L92.8083 9.04615L96.5979 10.1089L96.0643 11.5455L90.5964 10.0105L93.5276 2.45995L99.0032 3.98843L98.4463 5.43161L94.6181 4.3689Z" fill="white"/>
<path d="M119.498 11.9395L120.008 18.3289L112.576 19.4834L112.174 17.7713L114.494 17.4302C114.919 17.3646 115.329 17.3121 115.716 17.2859C116.089 17.2596 116.464 17.2596 116.837 17.2859L111.424 13.7172L112.615 12.4052L118.028 15.9739C117.941 15.7752 117.871 15.5713 117.82 15.3638C117.76 15.1478 117.719 14.9286 117.696 14.7078C117.696 14.4913 117.634 14.242 117.611 13.9796L117.433 12.0116L119.498 11.9395Z" fill="#FFCD1E"/>
<path d="M132.104 40.8685L134.053 38.1395L133.605 37.3195L130.774 38.4347L130.001 37.0703L138.508 33.7247L139.915 36.2831C140.936 38.1461 140.217 39.4778 138.577 40.1272C137.982 40.3712 137.31 40.4467 136.66 40.3428C136.01 40.2389 135.416 39.961 134.966 39.5499L133.001 42.5282L132.104 40.8685ZM135.198 36.6832L135.971 38.0477C136.036 38.2003 136.137 38.3403 136.267 38.4594C136.397 38.5784 136.554 38.6741 136.729 38.7408C136.903 38.8075 137.092 38.8438 137.283 38.8475C137.475 38.8513 137.665 38.8225 137.843 38.7627C138.017 38.6913 138.172 38.5893 138.296 38.4634C138.421 38.3376 138.512 38.1907 138.565 38.0326C138.618 37.8745 138.63 37.7087 138.602 37.5462C138.573 37.3837 138.504 37.2282 138.4 37.0899L137.626 35.7255L135.198 36.6832Z" fill="white"/>
<path d="M141.423 53.5559C140.482 53.7309 139.501 53.6657 138.604 53.3686C137.706 53.0715 136.933 52.5558 136.38 51.8864C135.828 51.217 135.521 50.4239 135.499 49.607C135.477 48.7902 135.741 47.986 136.257 47.2959C136.773 46.6059 137.518 46.0607 138.398 45.7292C139.279 45.3977 140.255 45.2946 141.205 45.433C142.154 45.5714 143.034 45.945 143.733 46.5068C144.433 47.0686 144.921 47.7934 145.135 48.59C145.419 49.666 145.187 50.7936 144.491 51.7248C143.795 52.656 142.692 53.3146 141.423 53.5559ZM141.029 52.0864C141.623 51.966 142.161 51.6992 142.576 51.3198C142.992 50.9403 143.265 50.465 143.363 49.9539C143.461 49.4427 143.378 48.9185 143.125 48.4472C142.872 47.9759 142.46 47.5786 141.942 47.3054C141.423 47.0322 140.821 46.8952 140.21 46.9118C139.6 46.9283 139.009 47.0976 138.512 47.3984C138.016 47.6992 137.635 48.1179 137.418 48.6019C137.201 49.086 137.157 49.6136 137.293 50.1185C137.383 50.4578 137.551 50.7787 137.787 51.0625C138.024 51.3463 138.325 51.5874 138.673 51.7717C139.02 51.9561 139.407 52.08 139.812 52.1362C140.216 52.1925 140.63 52.1801 141.029 52.0996V52.0864Z" fill="white"/>
<path d="M139.962 65.029L138.353 65.626C137.618 64.9224 137.202 64.0204 137.177 63.0807C137.167 62.5337 137.284 61.9903 137.522 61.4816C137.759 60.9729 138.112 60.5089 138.561 60.116C139.01 59.7231 139.546 59.409 140.138 59.1917C140.73 58.9744 141.366 58.8581 142.011 58.8495C142.656 58.8409 143.297 58.9401 143.896 59.1415C144.496 59.3429 145.043 59.6425 145.506 60.0232C145.97 60.4039 146.34 60.8583 146.596 61.3604C146.852 61.8625 146.989 62.4025 146.999 62.9495C147.016 63.8871 146.638 64.799 145.932 65.521L144.3 64.97C144.899 64.4419 145.227 63.7344 145.213 63.002C145.183 62.5767 145.031 62.1641 144.77 61.7997C144.51 61.4354 144.149 61.1303 143.718 60.9108C143.288 60.6914 142.801 60.5641 142.299 60.5401C141.798 60.5161 141.297 60.596 140.84 60.7729C140.383 60.9499 139.984 61.2185 139.677 61.5557C139.37 61.8928 139.164 62.2883 139.078 62.708C138.991 63.1277 139.026 63.5589 139.18 63.9645C139.334 64.37 139.603 64.7376 139.962 65.0356V65.029Z" fill="white"/>
<path d="M135.36 76.6926L135.801 74.823L140.503 72.573L136.481 71.917L136.829 70.441L146.025 71.9826L145.677 73.4586L141.872 72.8026L145.043 76.1875L144.602 78.0505L140.982 73.9965L135.36 76.6926Z" fill="white"/>
<path d="M140.039 84.8991L138.175 84.2431L136.914 86.8671L135.267 86.2964L136.52 83.6724L134.664 83.0164L133.117 86.1455L131.462 85.5748L133.635 81.0484L142.32 84.0529L140.139 88.5793L138.492 88.0085L140.039 84.8991Z" fill="white"/>
<path d="M133.187 98.8587L131.717 98.019L133.04 96.2806L126.659 92.7907L127.618 91.5312L133.999 95.0211L135.329 93.2827L136.829 94.1027L133.187 98.8587Z" fill="white"/>
<path d="M118.848 104.369C117.634 103.385 117.556 101.817 119.266 100.309C119.744 99.8668 120.324 99.514 120.971 99.2724C121.618 99.0307 122.317 98.9055 123.024 98.9047L123.535 100.368C122.98 100.354 122.428 100.437 121.912 100.61C121.396 100.784 120.927 101.045 120.534 101.378C119.683 102.132 119.521 102.834 119.993 103.221C120.464 103.608 121.168 103.392 122.143 102.755C124.269 101.371 125.615 101.404 126.636 102.237C127.657 103.07 127.881 104.73 126.273 106.173C125.476 106.9 124.402 107.365 123.241 107.485L122.653 106.127C123.536 106.033 124.355 105.686 124.973 105.143C125.631 104.566 126.01 103.903 125.468 103.457C124.927 103.011 124.463 103.274 123.365 103.962C121.748 104.953 120.294 105.55 118.848 104.369Z" fill="white"/>
<path d="M115.399 111.965L114.239 110.575L111.524 112.202L110.496 110.968L113.21 109.341L112.05 107.951L108.787 109.919L107.758 108.679L112.468 105.858L117.882 112.346L113.172 115.173L112.143 113.933L115.399 111.965Z" fill="white"/>
<path d="M98.0362 114.596L101.632 113.238L101.54 111.618L103.365 110.962L103.651 119.562L102.182 120.113L94.8575 114.163L96.675 113.507L98.0362 114.596ZM99.3819 115.744L101.919 117.896L101.733 114.858L99.3819 115.744Z" fill="white"/>
<path d="M86.907 124.115L86.4894 122.639L88.8637 122.16L87.1081 115.895L88.8327 115.547L90.5884 121.812L92.9626 121.333L93.3803 122.803L86.907 124.115Z" fill="white"/>
</svg>
